<svg xmlns="http://www.w3.org/2000/svg" xmlns:xlink="http://www.w3.org/1999/xlink" xmlns:fi="http://pattern.flaticon.com/" x="0" y="0" width="700" height="350" viewBox="0 0 700 350"><rect x="0px" y="0px" width="100%" height="100%" opacity="1" fill="#ffffff"/><defs><g transform="matrix(0.16266054942913424 -0.021332530700456088 0.021332530700456088 0.16266054942913424 221.12838208646605 280.7197493164597)" id="L1_22"><path d="m501.991 128.354-241-85.031c-3.229-1.14-6.752-1.14-9.981 0l-241 85.031c-5.992 2.114-10.002 7.774-10.01 14.128s3.989 12.023 9.976 14.151l241 85.677c1.625.578 3.325.867 5.024.867 1.7 0 3.399-.289 5.024-.867l241-85.677c5.987-2.128 9.983-7.797 9.976-14.151-.008-6.354-4.018-12.014-10.009-14.128z"/><path d="m475.973 328.574v-130.84l-30 10.665v120.175c-9.036 5.201-15.125 14.946-15.125 26.121 0 11.174 6.089 20.92 15.125 26.121v73.716c0 8.284 6.716 15 15 15s15-6.716 15-15v-73.715c9.036-5.2 15.125-14.947 15.125-26.121 0-11.175-6.088-20.921-15.125-26.122z"/><path d="m256 273.177c-5.149 0-10.22-.875-15.073-2.6l-135.483-48.165v66.008c0 16.149 16.847 29.806 50.073 40.59 28.961 9.4 64.647 14.577 100.483 14.577s71.521-5.177 100.483-14.577c33.226-10.784 50.073-24.441 50.073-40.59v-66.008l-135.482 48.165c-4.854 1.725-9.925 2.6-15.074 2.6z"/></g><path d="m507.655 351.422-39.661-39.662v-136.044l25.893-9.335c5.944-2.144 9.908-7.781 9.913-14.101.005-6.318-3.951-11.963-9.893-14.114l-236.9-85.794c-3.299-1.195-6.916-1.195-10.215 0l-236.899 85.794c-5.919 2.144-9.869 7.754-9.893 14.049-.022 6.295 3.887 11.934 9.789 14.121l87.429 32.387v98.856c0 3.068.94 6.063 2.695 8.579.965 1.384 10.106 13.867 33.51 25.647 29.567 14.884 68.347 22.431 115.261 22.431 46.88 0 85.856-7.531 115.845-22.386 23.635-11.707 33.08-24.06 34.08-25.429 1.872-2.567 2.881-5.662 2.881-8.84v-97.89l36.505-13.161v125.23l-39.662 39.662c-2.813 2.813-4.394 6.628-4.394 10.606s1.58 7.794 4.394 10.606l39.662 39.661v33.277c0 8.284 6.716 15 15 15s15-6.716 15-15v-33.277l39.661-39.661c5.858-5.856 5.858-15.355-.001-21.212zm-255.755-268.993 192.761 69.809-195.906 70.629-190.144-70.438zm119.589 209.172c-51.279 46.142-203.657 40.851-244.271.15v-81.914l116.255 43.066c1.845.292 3.587 1.883 10.298.046l117.719-42.44v81.092zm81.505 93.269-22.843-22.842 22.843-22.843 22.842 22.843z" transform="matrix(0.11717628687620163 0 0 0.11717628687620163 206.00000014303748 123.00000068657982)" id="L1_23"/><path d="m510.417 238.81-16.646-41.034c4.502-5.312 7.229-12.194 7.229-19.708 0-14.16-9.661-26.09-22.693-29.457-.002-1.973.002-51.395 0-53.491 0-6.813-4.16-12.655-10.598-14.884l-210.857-72.995c-8.699-3.013-18.28-3.012-26.98 0l-52.499 18.174c-3.914 1.354-5.989 5.626-4.634 9.54 1.355 3.916 5.626 5.988 9.541 4.634l52.499-18.174c5.533-1.917 11.629-1.917 17.165 0l210.857 72.994c.225.078.505.176.505.71s-.28.632-.505.71l-72.587 25.129v-2.246c0-9.087-6.492-16.847-15.437-18.45-87.201-15.64-175.631-15.64-262.832 0-8.944 1.604-15.437 9.363-15.437 18.45v2.246l-72.586-25.129c-.225-.078-.505-.176-.505-.71s.28-.632.505-.71l124.676-43.16c3.914-1.354 5.989-5.626 4.634-9.54-1.355-3.915-5.627-5.988-9.541-4.634l-124.676 43.161c-6.438 2.229-10.598 8.07-10.598 14.884s4.16 12.655 10.598 14.884l77.494 26.827v74.226c-39.285 3.911-70.067 37.15-70.067 77.447 0 26.928 13.75 50.701 34.593 64.681-34.867 7.704-61.035 38.839-61.035 75.989 0 42.918 34.917 77.835 77.835 77.835h385.523c12.884 0 23.365-10.481 23.365-23.365 0-12.725-10.226-23.099-22.891-23.353-7.836-20.138-7.896-42.063-.181-62.229 12.749-.158 23.072-10.572 23.072-23.358 0-12.884-10.481-23.365-23.365-23.365h-4.631c1-2.599 1.554-5.418 1.554-8.365 0-12.884-10.481-23.365-23.365-23.365h-.202c-7.266-18.839-7.738-39.225-1.415-58.266 3.969 4.296 9.553 6.793 15.485 6.793h40.044c7.027 0 13.575-3.493 17.515-9.345 3.979-5.907 4.754-13.377 2.074-19.981zm-24.417-60.742c0 8.495-6.816 15.406-15.193 15.406s-15.193-6.911-15.193-15.406 6.816-15.407 15.193-15.407 15.193 6.911 15.193 15.407zm-22.693-66.541v37.084c-13.032 3.367-22.693 15.297-22.693 29.457 0 7.515 2.727 14.396 7.229 19.708l-5.23 12.891h-52.398v-73.836zm-348.714 3.499c85.444-15.322 172.093-15.322 257.537 0 1.787.321 3.084 1.871 3.084 3.687v51.117h-46.214c-4.142 0-7.5 3.357-7.5 7.5s3.358 7.5 7.5 7.5h46.214v25.838h-263.705v-25.838h182.491c4.142 0 7.5-3.357 7.5-7.5s-3.358-7.5-7.5-7.5h-182.491v-51.117c0-1.816 1.297-3.366 3.084-3.687zm357.131 259.677c0 4.612-3.752 8.365-8.365 8.365h-385.524c-25.422 0-46.105 20.683-46.105 46.105s20.683 46.104 46.105 46.104h296.165c4.142 0 7.5-3.357 7.5-7.5s-3.358-7.5-7.5-7.5h-296.165c-17.151 0-31.105-13.953-31.105-31.104s13.954-31.105 31.105-31.105h236.535v42.042c0 2.479 1.225 4.798 3.273 6.195 2.047 1.397 4.653 1.694 6.962.788l20.249-7.929 20.249 7.929c.884.347 1.811.517 2.734.517 1.488 0 2.964-.442 4.228-1.305 2.048-1.397 3.273-3.716 3.273-6.195v-42.042h72.397c-6.518 20.321-6.471 41.909.148 62.21h-38.883c-4.142 0-7.5 3.357-7.5 7.5s3.358 7.5 7.5 7.5h54.358c4.613 0 8.365 3.753 8.365 8.365s-3.752 8.365-8.365 8.365h-385.523c-34.647.001-62.835-28.187-62.835-62.835s28.188-62.835 62.835-62.835h385.523c4.613 0 8.366 3.753 8.366 8.365zm-142.354 23.366h30.968v31.051l-12.749-4.992c-1.759-.689-3.711-.689-5.47 0l-12.749 4.992zm-128.37-63.461h235.917c4.613 0 8.365 3.753 8.365 8.365s-3.752 8.365-8.365 8.365h-332.64c-34.647 0-62.835-28.188-62.835-62.836s28.188-62.835 62.835-62.835h332.25c-1.853 4.974-5.277 12.025-6.429 16.73h-325.821c-25.422 0-46.105 20.683-46.105 46.105s20.683 46.104 46.105 46.104h61.723c4.142 0 7.5-3.357 7.5-7.5s-3.358-7.5-7.5-7.5h-61.723c-17.151 0-31.105-13.953-31.105-31.104s13.954-31.105 31.105-31.105h27.421v41.682c0 2.479 1.225 4.798 3.273 6.195 2.047 1.397 4.654 1.693 6.962.788l20.249-7.929 20.249 7.929c.884.347 1.811.517 2.734.517 1.488 0 2.964-.442 4.228-1.305 2.048-1.397 3.273-3.716 3.273-6.195v-41.682h228.118c-6.568 20.311-6.568 41.899 0 62.21h-219.784c-4.142 0-7.5 3.357-7.5 7.5s3.358 7.501 7.5 7.501zm-54.302-77.21h30.968v30.69l-12.749-4.992c-1.759-.689-3.711-.689-5.47 0l-12.749 4.992zm349.204-6.987c-.551.819-2.15 2.724-5.074 2.724h-40.044c-2.924 0-4.522-1.905-5.074-2.724-1.204-1.787-1.428-3.961-.616-5.963l15.344-37.822c3.235 1.195 6.727 1.847 10.368 1.847s7.133-.652 10.368-1.847l15.343 37.822c.813 2.003.589 4.176-.615 5.963z" transform="matrix(0.11718955636024475 0 0 0.11718955636024475 105 157.99999519339735)" id="L1_24"/><g transform="matrix(0.125 0 0 0.125 67 87)" id="L1_25"><path d="M472.004,0c-0.001,0-0.003,0-0.004,0H8C3.583-0.001,0.001,3.579,0,7.996C0,7.997,0,7.999,0,8v160h16V16h448v176H184v16    h288c4.417,0.001,7.999-3.579,8-7.996c0-0.001,0-0.003,0-0.004V8C480.001,3.583,476.421,0.001,472.004,0z"/><rect x="264px" y="40px" width="160px" height="16px"/><rect x="288px" y="88px" width="160px" height="16px"/><rect x="256px" y="136px" width="160px" height="16px"/><path d="M255.362,68.974c-5.477-13.165-20.589-19.397-33.753-13.92c-0.225,0.094-0.449,0.19-0.671,0.29l-64.868,33.65    C158.628,83.692,159.971,77.886,160,72c0-22.091-17.909-40-40-40S80,49.909,80,72c0.03,8.683,2.913,17.116,8.205,24h-0.333    c-22.708,0.152-42.979,14.269-50.996,35.516L15.52,205.125c-5.084,13.206,1.5,28.034,14.707,33.118    c6.022,2.318,12.697,2.279,18.692-0.11c6.888-2.775,12.248-8.379,14.715-15.383L72,196.125v115.783    c-6.884-5.291-15.317-8.174-24-8.205c-22.058-0.033-39.967,17.822-40,39.881c-0.016,10.803,4.344,21.151,12.087,28.685    C7.799,378.547,0.048,391.163,0,404.961V472c-0.001,4.417,3.579,7.999,7.996,8c0.001,0,0.003,0,0.004,0h80    c4.417,0.001,7.999-3.579,8-7.996c0-0.001,0-0.003,0-0.004v-67.039c-0.039-11.339-5.307-22.025-14.276-28.961h60.553    c-8.97,6.936-14.238,17.622-14.276,28.961V472c-0.001,4.417,3.579,7.999,7.996,8c0.001,0,0.003,0,0.004,0h80    c4.417,0.001,7.999-3.579,8-7.996c0-0.001,0-0.003,0-0.004v-67.039c-0.048-13.798-7.799-26.414-20.087-32.692    c15.795-15.417,16.102-40.72,0.685-56.515c-9.494-9.727-23.281-13.962-36.598-11.242V140.859l73.441-38.133    C254.606,97.25,260.838,82.138,255.362,68.974z M120,48c13.255,0,24,10.745,24,24s-10.745,24-24,24    c-13.249-0.014-23.986-10.751-24-24C96,58.745,106.745,48,120,48z M48,319.703c13.255,0,24,10.745,24,24s-10.745,24-24,24    s-24-10.745-24-24C24.014,330.454,34.751,319.718,48,319.703z M80,464H16v-59.039c0.016-11.571,9.393-20.947,20.965-20.961h22.07    c11.571,0.014,20.949,9.39,20.965,20.961V464z M208,404.961V464h-64v-59.039c0.016-11.571,9.393-20.947,20.965-20.961h22.07    C198.607,384.014,207.984,393.39,208,404.961z M176,319.703c13.249,0.014,23.986,10.751,24,24c0,13.255-10.745,24-24,24    s-24-10.745-24-24S162.745,319.703,176,319.703z M240.723,82.32c-1.071,2.748-3.27,4.905-6.039,5.922l-78.367,40.656    C153.665,130.274,152,133.013,152,136v175.908c-14.985,11.08-20.176,31.133-12.448,48.092H128V224h-16v136H84.448    c2.276-5.03,3.475-10.48,3.522-16H88V144c-0.001-4.419-3.584-8-8.002-7.999c-3.493,0.001-6.582,2.268-7.63,5.601L48.48,217.617    c-1.81,4.992-7.325,7.572-12.317,5.761c-0.35-0.127-0.693-0.274-1.027-0.441c-4.615-2.385-6.574-7.953-4.468-12.703l21.355-73.609    c5.759-14.79,19.976-24.556,35.848-24.625h56.645c1.282,0.002,2.546-0.307,3.684-0.898l79.512-41.273    c4.77-1.99,10.268,0.046,12.59,4.664C241.533,76.927,241.686,79.767,240.723,82.32z"/><path d="M331.913,372.269c15.823-15.416,16.153-40.741,0.737-56.564c-15.416-15.823-40.741-16.153-56.564-0.737    c-15.823,15.416-16.153,40.741-0.737,56.564c0.243,0.249,0.489,0.495,0.738,0.737c-12.287,6.278-20.039,18.894-20.087,32.692V472    c-0.001,4.417,3.579,7.999,7.996,8c0.001,0,0.003,0,0.004,0h80c4.417,0.001,7.999-3.579,8-7.996c0-0.001,0-0.003,0-0.004v-67.039    C351.952,391.163,344.201,378.547,331.913,372.269z M304,319.703c13.255,0,24,10.745,24,24s-10.745,24-24,24s-24-10.745-24-24    C280.014,330.454,290.751,319.718,304,319.703z M336,464h-64v-59.039c0.016-11.571,9.393-20.947,20.965-20.961h22.07    c11.571,0.014,20.949,9.39,20.965,20.961V464z"/><path d="M459.913,372.269c15.823-15.416,16.153-40.741,0.737-56.564c-15.416-15.823-40.741-16.153-56.564-0.737    c-15.823,15.416-16.153,40.741-0.737,56.564c0.243,0.249,0.489,0.495,0.738,0.737c-12.287,6.278-20.039,18.894-20.087,32.692V472    c-0.001,4.417,3.579,7.999,7.996,8c0.001,0,0.003,0,0.004,0h80c4.417,0.001,7.999-3.579,8-7.996c0-0.001,0-0.003,0-0.004v-67.039    C479.952,391.163,472.201,378.547,459.913,372.269z M432,319.703c13.255,0,24,10.745,24,24s-10.745,24-24,24s-24-10.745-24-24    C408.014,330.454,418.751,319.718,432,319.703z M464,464h-64v-59.039c0.016-11.571,9.393-20.947,20.965-20.961h22.07    c11.571,0.014,20.949,9.39,20.965,20.961V464z"/></g><g transform="matrix(0.1171875 0 0 0.1171875 281 176.99999997070313)" id="L1_26"><path d="m464.867188 0h-224.933594c-25.988282 0-47.132813 21.144531-47.132813 47.132812v144.292969l-41.765625-20.769531c-1.410156-.703125-2.84375-1.367188-4.289062-1.996094 12.261718-12.800781 19.820312-30.144531 19.820312-49.226562 0-39.277344-31.953125-71.234375-71.230468-71.234375-39.28125 0-71.234376 31.957031-71.234376 71.234375 0 21.34375 9.449219 40.515625 24.371094 53.582031-27.480468 15.460937-48.472656 45.621094-48.472656 82.984375v48.199219c0 20.75 13.472656 38.410156 32.132812 44.6875v83.847656c0 8.28125 6.714844 15 15 15h96.398438c8.285156 0 15-6.71875 15-15v-168.535156l48.023438 24.007812c18.378906 9.1875 43.308593 3.710938 54.582031-17.207031h53.78125l-56.949219 156.605469c-2.832031 7.785156 1.1875 16.394531 8.972656 19.222656 8.898438 3.238281 16.8125-2.34375 19.222656-8.96875l60.675782-166.859375h10.515625l61.296875 166.90625c2.328125 6.332031 10.183594 12.238281 19.253906 8.90625 7.773438-2.855469 11.765625-11.472656 8.90625-19.25l-57.5-156.5625h75.554688c25.484374 0 47.132812-20.558594 47.132812-47.132812v-176.734376c0-26.578124-21.648438-47.132812-47.132812-47.132812zm-410.765626 119.433594c0-22.738282 18.496094-41.234375 41.230469-41.234375 22.738281 0 41.234375 18.496093 41.234375 41.234375 0 22.734375-18.496094 41.230468-41.234375 41.230468-22.734375 0-41.230469-18.496093-41.230469-41.230468zm181.398438 135.527344c-.039062.109374-.078125.222656-.113281.335937-1.023438 2.855469-3.335938 5.261719-6.167969 6.425781-2.996094 1.21875-6.367188 1.089844-9.246094-.347656-28.523437-14.269531-69.738281-34.859375-69.738281-34.859375-9.953125-4.976563-21.703125 2.273437-21.703125 13.417969v177.800781h-66.398438v-81.402344c0-8.28125-6.71875-15-15-15-9.449218 0-17.132812-7.683593-17.132812-17.132812v-48.199219c0-36.652344 29.84375-65.332031 65.332031-65.332031h13.253907c10.054687 0 20.097656 2.359375 29.070312 6.839843 0 0 74.402344 37 93.351562 46.4375 4.058594 2.015626 5.988282 6.75 4.492188 11.015626zm246.5-31.09375c0 4.582031-1.777344 8.882812-5.011719 12.117187-3.183593 3.1875-7.601562 5.015625-12.121093 5.015625h-200.46875c-.027344-.082031-.046876-.164062-.074219-.242188l37.226562-74.449218c3.703125-7.410156.703125-16.417969-6.707031-20.125-7.40625-3.703125-16.417969-.703125-20.125 6.707031l-31.75 63.496094c-5.917969-2.949219-12.796875-6.375-20.167969-10.039063v-159.214844c0-9.445312 7.683594-17.132812 17.132813-17.132812h224.933594c4.519531 0 8.9375 1.828125 12.125 5.023438 3.230468 3.226562 5.007812 7.527343 5.007812 12.109374zm0 0"/><path d="m432.734375 64.265625h-160.667969c-8.285156 0-15 6.714844-15 15s6.714844 15 15 15h160.667969c8.28125 0 15-6.714844 15-15s-6.714844-15-15-15zm0 0"/><path d="m432.734375 120.5h-80.335937c-8.28125 0-15 6.714844-15 15s6.71875 15 15 15h80.335937c8.28125 0 15-6.714844 15-15s-6.714844-15-15-15zm0 0"/><path d="m432.734375 176.734375h-80.335937c-8.28125 0-15 6.714844-15 15 0 8.28125 6.71875 15 15 15h80.335937c8.28125 0 15-6.71875 15-15 0-8.285156-6.714844-15-15-15zm0 0"/></g><g transform="matrix(0.1171875 0 0 0.1171875 13 296.00000077247614)" id="L1_27"><path d="m504.5 433.613h-13.27v-269.446c0-19.735-16.06-35.79-35.8-35.79h-17.617c1.926-4.03 2.988-8.5 2.988-13.145 0-11.31-6.207-21.626-16.2-26.923l-98.07-51.95c-3.66-1.94-8.2-.544-10.138 3.117-1.939 3.66-.543 8.199 3.117 10.138l98.068 51.949c5.149 2.729 8.223 7.839 8.223 13.669s-3.074 10.939-8.221 13.667l-95.332 50.502-60.608-69.114c-2.731-3.115-7.47-3.425-10.584-.694s-3.425 7.47-.694 10.584l58.264 66.441-36.072 19.109c-10.365 5.483-22.74 5.483-33.102.002l-145.03-76.828c-5.148-2.729-8.223-7.839-8.223-13.668s3.074-10.939 8.221-13.668l145.027-76.828c10.365-5.484 22.74-5.484 33.101-.002l20.76 11c3.66 1.94 8.2.545 10.139-3.115s.544-8.2-3.115-10.139l-20.764-11.002c-14.758-7.809-32.38-7.809-47.139.001l-145.032 76.831c-9.991 5.296-16.197 15.612-16.197 26.922 0 4.645 1.062 9.114 2.988 13.145h-17.618c-19.74 0-35.8 16.055-35.8 35.79v269.446h-13.27c-4.142 0-7.5 3.358-7.5 7.5v16.623c0 26.821 21.82 48.642 48.641 48.642h414.717c26.821 0 48.642-21.82 48.642-48.642v-16.623c0-4.143-3.358-7.501-7.5-7.501zm-183.984-130.116 9.779 16.938c2.021 3.501.673 6.592 0 7.758s-2.676 3.879-6.719 3.879h-6.121c-4.043 0-6.045-2.713-6.719-3.879-.674-1.167-2.021-4.257 0-7.758zm7.5-110.176 31.034-16.44v29.783c0 21.39-12.088 40.566-31.034 49.672zm-72.017 31.521c8.095 0 16.192-1.953 23.572-5.857l33.445-17.717v60.871c-40.978 13.574-86.315 12.05-126.312-4.574-20.505-8.522-33.754-28.502-33.754-50.9v-29.785l79.483 42.106c7.378 3.905 15.471 5.856 23.566 5.856zm-220.229-60.675c0-11.464 9.331-20.79 20.8-20.79h33.137l37.753 20h-64.19c-4.142 0-7.5 3.358-7.5 7.5v235.24c0 4.142 3.358 7.5 7.5 7.5h39.59c4.142 0 7.5-3.358 7.5-7.5s-3.358-7.5-7.5-7.5h-32.09v-220.24h67.18v28.287c0 28.479 16.877 53.895 42.998 64.752 23.848 9.912 49.45 14.868 75.053 14.868 19.254 0 38.507-2.805 57.016-8.411v8.614l-15.27 26.448c-4.114 7.125-4.114 15.633 0 22.758s11.481 11.379 19.709 11.379h6.121c8.228 0 15.595-4.254 19.709-11.379s4.114-15.633 0-22.758l-15.27-26.448v-13.854c1.014-.401 2.029-.798 3.037-1.217 26.12-10.857 42.997-36.273 42.997-64.752v-28.287h67.18v220.24h-308.37c-4.142 0-7.5 3.358-7.5 7.5s3.358 7.5 7.5 7.5h315.87c4.142 0 7.5-3.358 7.5-7.5v-235.24c0-4.142-3.358-7.5-7.5-7.5h-64.191l37.753-20h33.137c11.469 0 20.8 9.326 20.8 20.79v269.446h-440.459zm266.61 284.45c-2.771 8.065-10.434 13.878-19.427 13.878h-53.905c-8.994 0-16.656-5.813-19.428-13.878zm194.62 9.119c0 18.55-15.092 33.642-33.642 33.642h-414.717c-18.55 0-33.641-15.092-33.641-33.642v-9.123h13.193c.026 0 .051.004.077.004h165.877c3.126 16.422 17.582 28.878 34.901 28.878h53.905c17.318 0 31.774-12.457 34.9-28.878h165.877c.026 0 .051-.004.077-.004h13.193z"/><path d="m258.268 371.117c0-4.142-3.358-7.5-7.5-7.5h-150.145c-4.142 0-7.5 3.358-7.5 7.5s3.358 7.5 7.5 7.5h150.146c4.141 0 7.499-3.358 7.499-7.5z"/><path d="m100.623 347.073h100.39c4.142 0 7.5-3.358 7.5-7.5s-3.358-7.5-7.5-7.5h-100.39c-4.142 0-7.5 3.358-7.5 7.5s3.357 7.5 7.5 7.5z"/></g><g transform="matrix(0.1171877309679985 0 0 0.1171877309679985 172.00000005722063 52.000000829698365)" id="L1_28"><path d="m256 282.924c-4.142 0-7.5 3.357-7.5 7.5v90c0 4.143 3.358 7.5 7.5 7.5s7.5-3.357 7.5-7.5v-90c0-4.143-3.358-7.5-7.5-7.5z"/><path d="m503 297.924c4.142 0 7.5-3.357 7.5-7.5v-226.978c0-13.012-14.659-21.676-26.08-15.253l-5.096 2.866-24.062-24.45c-1.827-1.855-4.486-2.63-7.021-2.05-.979.224-17.111 3.985-40.479 12.898v-29.958c0-2.478-1.224-4.796-3.27-6.193-2.046-1.396-4.651-1.692-6.958-.793-70.109 27.384-106.842 70.539-125.311 101.919-7.497 12.739-12.671 24.561-16.223 34.45-3.552-9.889-8.726-21.711-16.223-34.45-18.469-31.38-55.202-74.535-125.311-101.919-2.307-.899-4.912-.604-6.958.793s-3.27 3.716-3.27 6.193v29.954c-23.317-8.891-39.443-12.656-40.48-12.893-2.539-.58-5.195.194-7.021 2.05l-24.062 24.45-5.096-2.867c-11.341-6.377-26.079 2.15-26.079 15.253v315.204c0 6.313 3.418 12.156 8.92 15.253l193.333 108.75c4.212 1.886 9.498 2.861 13.943 1.41 3.129 4.772 8.517 7.936 14.637 7.936h47.333c6.12 0 11.508-3.164 14.637-7.936 4.746 1.509 9.393 1.039 13.943-1.41l193.334-108.751c5.501-3.096 8.919-8.939 8.919-15.252v-40.227c0-9.697-15-9.697-15 0v40.227c0 .902-.489 1.737-1.274 2.179l-193.334 108.75c-2.075.699-3.317-.028-3.726-2.179v-311.052c-.276-1.496-.33-5.427 1.274-6.33l193.333-108.75c2.076-.698 3.318.028 3.727 2.179v226.978c.001 4.141 3.358 7.499 7.501 7.499zm-110.238-279.222v24.808c-7.085 3.018-14.588 6.442-22.353 10.31-27.388 13.642-61.643 34.82-90.239 65.217 1.523-2.93 3.176-5.934 4.98-8.997 16.354-27.786 48.133-65.489 107.612-91.338zm-110.596 208.362h-52.333v-18.333h52.333zm-52.333 15h52.333v186.718h-52.333zm0 201.718h52.333v18.334h-52.333zm52.333-250.051h-52.333v-17.384c0-1.379 1.122-2.5 2.5-2.5h47.333c1.378 0 2.5 1.121 2.5 2.5zm-217.757-153.533c10.906 2.911 42.706 12.288 78.232 31.014 8.277 4.362 15.553-8.758 6.994-13.27-10.632-5.604-20.888-10.382-30.398-14.434v-24.806c59.141 25.7 90.856 63.114 107.226 90.685 1.913 3.222 3.657 6.381 5.261 9.464-11.776-12.53-25.262-24.305-40.425-35.228-7.866-5.67-16.636 6.502-8.768 12.17 25.897 18.656 46.607 39.827 61.742 63.056-8.705-.713-16.151 2.152-23.362-1.904l-174.689-98.265zm149.186 449.361c-.829.014-1.658.021-2.488.021l-193.333-108.75c-.786-.442-1.275-1.277-1.275-2.18v-315.204c0-1.998 2.208-3.031 3.726-2.179l193.333 108.749c1.605.905 1.551 4.833 1.275 6.331v311.053c0 1.248-.776 1.888-1.238 2.159zm68.571 4.94c0 1.379-1.122 2.5-2.5 2.5h-47.333c-1.378 0-2.5-1.121-2.5-2.5v-17.383h52.333zm8.92-337.556c-7.343 4.131-14.481 1.292-23.35 1.904 29.369-44.988 74.814-74.351 109.024-91.433 32.391-16.174 60.673-24.499 70.831-27.215l18.186 18.48z"/><path d="m462.615 130.968-140.006 80c-2.336 1.335-3.779 3.82-3.779 6.512v48.351c0 5.659 6.308 9.321 11.221 6.512l140.005-80c2.337-1.335 3.779-3.82 3.779-6.512v-48.351c0-5.253-6.043-9.473-11.22-6.512zm-3.78 50.51-125.005 71.428v-31.074l125.005-71.429z"/></g><g transform="matrix(0.11717651784420013 0 0 0.11717651784420013 96.99999845519238 239.9999997568359)" id="L1_29"><path d="m394.718 139.803c-2.175-3.526-6.796-4.622-10.32-2.449-3.526 2.173-4.622 6.794-2.449 10.32 12.98 21.056 20.392 45.035 21.666 69.762h-37.441c-3.484-14.714-16.763-25.717-32.491-25.717-15.732 0-29.014 11.003-32.499 25.717h-37.659v-44.1c0-4.142-3.357-7.5-7.5-7.5-10.137 0-18.383-8.247-18.383-18.383s8.246-18.383 18.383-18.383c4.143 0 7.5-3.358 7.5-7.5v-44.087c37.823 1.864 72.828 17.808 99.245 45.374 3.504 3.004 7.039 3.079 10.604.226 2.99-2.866 3.092-7.614.226-10.604-30.987-32.335-72.703-50.152-117.472-50.179-.035 0-.068-.005-.103-.005-.034 0-.066.005-.1.005-39.565.024-77.655 14.315-107.262 40.247-3.116 2.729-3.43 7.468-.7 10.583 2.729 3.117 7.468 3.43 10.583.701 25.021-21.916 56.726-34.665 89.979-36.337v37.426c-14.808 3.413-25.883 16.705-25.883 32.534s11.075 29.121 25.883 32.534v37.45h-44.267c-4.143 0-7.5 3.358-7.5 7.5v.175c0 10.137-8.25 18.383-18.392 18.383-10.137 0-18.383-8.247-18.383-18.383v-.175c0-4.142-3.357-7.5-7.5-7.5h-44.069c1.479-29.389 11.426-57.162 29.002-80.734 2.476-3.321 1.791-8.02-1.529-10.496-3.319-2.475-8.02-1.791-10.496 1.529-21.01 28.176-32.136 61.786-32.177 97.203-1.499 61.858 37.975 121.211 93.198 147.378 6.282 2.977 10.342 9.45 10.342 16.492v14.95c-15.397 0-25.891 8.248-25.891 23.03 0 14.771 10.16 23.043 25.891 23.03v34.13c0 14.848 13.321 28.1 28.1 28.1h62.34c14.78 0 28.1-13.248 28.1-28.1v-34.13c17.564.014 25.897-9.32 25.891-23.03-.007-14.294-8.993-23.03-25.891-23.03v-14.95c0-7.043 4.083-13.528 10.404-16.523 56.811-26.94 92.129-84.895 93.136-147.354-.03-30.149-8.37-59.586-24.116-85.13zm-201.883 218.957c-49.19-23.308-81.702-72.349-84.415-126.325h37.372c3.348 14.896 16.682 26.058 32.573 26.058 15.896 0 29.233-11.162 32.582-26.058h37.576v44.441c0 4.142 3.357 7.5 7.5 7.5 10.137 0 18.383 8.247 18.383 18.383s-8.246 18.383-18.383 18.383c-4.143 0-7.5 3.358-7.5 7.5v75.114h-36.77v-14.95c.001-12.806-7.425-24.6-18.918-30.046zm94.359 138.288h-62.34c-9.532 0-13.569-8.485-13.1-16.001h88.539c.017 8-2.519 16.001-13.099 16.001zm30.95-62.23h-46.36c-4.143 0-7.5 3.358-7.5 7.5 0 .017.002.033.002.05s-.002.033-.002.05c0 4.142 3.357 7.5 7.5 7.5h28.51v16.129h-88.539v-16.129h27.35c4.143 0 7.5-3.358 7.5-7.5 0-.017-.002-.033-.002-.05s.002-.033.002-.05c0-4.142-3.357-7.5-7.5-7.5h-45.2c-11.88.18-12.213-16.06 0-16.06h124.24c10.379 0 11.879 16.073-.001 16.06zm1.128-76.088c-11.529 5.463-18.979 17.27-18.979 30.078v14.95h-36.77v-68.464c14.808-3.413 25.883-16.705 25.883-32.534s-11.075-29.121-25.883-32.534v-37.791h44.267c4.123 0 7.474-3.329 7.5-7.452.064-10.071 8.315-18.265 18.392-18.265 10.072 0 18.319 8.194 18.384 18.265.026 4.123 3.377 7.452 7.5 7.452h44.061c-2.716 53.959-35.204 102.988-84.355 126.295z"/><g><path d="m256.024 46.063c-4.143 0-7.5-3.358-7.5-7.5v-31.063c0-4.142 3.357-7.5 7.5-7.5s7.5 3.358 7.5 7.5v31.063c0 4.142-3.357 7.5-7.5 7.5z"/><path d="m360.966 74.182c-3.597-2.053-4.816-6.658-2.745-10.245l15.531-26.901c2.07-3.587 6.655-4.818 10.245-2.745 3.587 2.071 4.816 6.658 2.745 10.245l-15.531 26.901c-1.388 2.405-6.187 5.061-10.245 2.745z"/><g><path d="m437.79 151.004c-2.071-3.587-.842-8.174 2.745-10.245l26.9-15.531c3.585-2.071 8.175-.843 10.245 2.745 2.071 3.587.842 8.174-2.745 10.245l-26.9 15.531c-4.261 2.499-8.857-.338-10.245-2.745z"/><path d="m34.368 383.92c-1.92-3.67-.842-8.174 2.745-10.245l26.9-15.531c3.585-2.071 8.173-.843 10.245 2.745 2.071 3.587.842 8.174-2.745 10.245l-26.9 15.531c-4.339 2.333-8.339.899-10.245-2.745z"/></g><path d="m140.836 71.437-15.531-26.901c-2.071-3.587-.842-8.174 2.745-10.245 3.585-2.072 8.174-.843 10.245 2.745l15.531 26.901c2.071 3.587.755 8.031-2.745 10.245-4.057 2.566-8.856-.339-10.245-2.745z"/><g><path d="m64.013 153.75-26.9-15.531c-3.587-2.071-4.816-6.658-2.745-10.245 2.07-3.588 6.655-4.817 10.245-2.745l26.9 15.531c3.587 2.071 5.352 7.026 2.745 10.245-3.234 3.993-6.484 4.493-10.245 2.745z"/><path d="m467.435 386.666-26.9-15.531c-3.587-2.071-4.816-6.658-2.745-10.245 2.07-3.588 6.659-4.816 10.245-2.745l26.9 15.531c3.587 2.071 4.981 6.758 2.745 10.245-2.406 3.752-5.906 5.327-10.245 2.745z"/></g><g><path d="m38.639 263.447h-31.062c-4.143 0-7.5-3.358-7.5-7.5s3.357-7.5 7.5-7.5h31.063c4.143 0 7.5 3.358 7.5 7.5s-3.358 7.5-7.501 7.5z"/><path d="m504.471 263.447h-31.063c-4.143 0-7.5-3.358-7.5-7.5s3.357-7.5 7.5-7.5h31.063c4.143 0 7.5 3.358 7.5 7.5s-3.357 7.5-7.5 7.5z"/></g></g></g><g transform="matrix(0.1171875 0 0 0.1171875 0 223.00000001464844)" id="L1_30"><path d="m464.871094 0h-224.941406c-26.03125 0-47.128907 21.101562-47.128907 47.128906v110.800782c11.890625 5.910156 24.738281 12.300781 36.730469 18.261718l18.347656-36.710937c11.109375-22.199219 38.191406-31.21875 60.382813-20.128907 22.238281 11.128907 31.25 38.136719 20.117187 60.378907l-32.707031 65.429687c.867187 8.660156.097656 17.390625-2.34375 25.839844h21.59375l-56.953125 156.609375c-3.378906 9.289063 3.152344 20.128906 14.101562 20.128906 6.121094 0 11.878907-3.777343 14.089844-9.878906l60.679688-166.859375h10.511718l61.296876 166.910156c2.230468 6.070313 7.972656 9.828125 14.089843 9.828125 10.230469 0 17.730469-10.21875 14.070313-20.167969l-57.5-156.570312h75.5625c26.027344 0 47.128906-21.101562 47.128906-47.128906v-176.742188c0-26.027344-21.101562-47.128906-47.128906-47.128906zm-32.140625 206.738281h-67.300781c-8.28125 0-15-6.71875-15-15 0-8.289062 6.71875-15 15-15h67.300781c8.289062 0 15 6.710938 15 15 0 8.28125-6.710938 15-15 15zm0-56.238281h-67.300781c-8.28125 0-15-6.710938-15-15 0-8.28125 6.71875-15 15-15h67.300781c8.289062 0 15 6.71875 15 15 0 8.289062-6.710938 15-15 15zm0-56.230469h-160.660157c-8.289062 0-15-6.71875-15-15s6.710938-15 15-15h160.660157c8.289062 0 15 6.71875 15 15s-6.710938 15-15 15zm0 0"/><path d="m263.921875 264.566406c2.710937-7.941406 2.691406-16.238281.402344-23.808594l37.226562-74.445312c3.703125-7.410156.703125-16.421875-6.707031-20.125-7.40625-3.707031-16.417969-.703125-20.125 6.707031l-31.75 63.492188c-18.976562-9.449219-47.808594-23.785157-71.035156-35.335938-21.609375-10.746093-37.03125-20.382812-63.34375-20.382812h-13.253906c20.488281 0 38.773437-9.429688 50.742187-24.1875 9.132813-11.230469 14.59375-25.542969 14.59375-41.140625 0-36.089844-29.25-65.339844-65.34375-65.339844-36.078125 0-65.328125 29.25-65.328125 65.339844 0 17.332031 6.75 33.082031 17.761719 44.769531 11.90625 12.660156 28.816406 20.558594 47.5625 20.5625-25.132813 0-49.703125 10.183594-67.378907 27.90625-18.019531 17.972656-27.945312 41.917969-27.945312 67.425781v48.199219c0 20.75 13.472656 38.40625 32.132812 44.6875v83.84375c0 8.285156 6.714844 15 15 15h96.398438c8.285156 0 15-6.714844 15-15v-168.535156c14.222656 7.109375 32.90625 16.449219 48.023438 24.011719 10.597656 5.296874 22.980468 5.773437 34.023437 1.28125 11.011719-4.53125 19.5-13.550782 23.285156-24.75.019531-.058594.039063-.117188.058594-.175782zm0 0"/></g><g transform="matrix(1 0 0 1 300 8)" id="L1_32" fill="#000000"><path d="m58.669 10.118-27.99-10c-.4419711-.15600345-.9240289-.15600345-1.366 0l-27.983 10c-.79312091.2858868-1.32179815 1.038427-1.32179815 1.8815s.52867724 1.5956132 1.32179815 1.8815l13.67 4.884v6.235c0 3.888 13.465 4 15 4s15-.112 15-4v-6.235l3-1.065v2.3c0 1.1045695.8954305 2 2 2h2c1.1045695 0 2-.8954305 2-2v-3c-.0029839-.4630681-.1146467-.9189675-.326-1.331l5-1.788c.7931209-.2858868 1.3217981-1.038427 1.3217981-1.8815s-.5286772-1.5956132-1.3217981-1.8815zm-15.669 12.682c-3.809-1.734-11.835-1.8-13-1.8s-9.191.066-13 1.8v-8.712c.6-.77 5.316-2.088 13-2.088s12.4 1.318 13 2.088zm-13 4.2c-7.4 0-12.047-1.222-12.916-2 .869-.778 5.518-2 12.916-2s12.047 1.222 12.916 2c-.869.778-5.516 2-12.916 2zm18.469-11.595-3.469 1.237v-2.642c0-3.888-13.465-4-15-4s-15 .112-15 4v2.641l-13-4.641 28.014-10 19.986 7.142v5.042c-.6323143.2247022-1.1712592.6545205-1.531 1.221zm3.531 4.595h-2v-3c0-.5522847.4477153-1 1-1s1 .4477153 1 1zm0-5.856v-4.287l6 2.143z" id="L1_31"/><path d="m57 31c-.0600315-.0001773-.1199516.0051787-.179.016-8.8726728 1.3794293-17.8419311 2.0429022-26.821 1.984-8.9790689.0589022-17.9483272-.6045707-26.821-1.984-.05914563-.0100897-.11900255-.01544-.179-.016-.7 0-3 .793-3 11s2.3 11 3 11c.06004793-.0012711.11990124-.0072899.179-.018 6.81770028-1.0799035 13.6994144-1.7072753 20.6-1.878l-1.952 4.682c-.2998992.7496857-.1175748 1.6062533.4616424 2.168815s1.4407385.7198238 2.1813576.398185l.765-.327.331.761c.3126556.7378909 1.0376093 1.2160686 1.839 1.213h.025c.8073899-.0062972 1.5312063-.4991084 1.833-1.248l1.737-4.158 1.731 4.142c.2991288.7559362 1.0260752 1.2555882 1.839 1.264h.03c.7959636.0032667 1.5169852-.4690182 1.832-1.2l.334-.767.753.323c.7438278.3283499 1.6125382.1719295 2.195116-.3952535.5825777-.5671831.7622009-1.4313941.453884-2.1837465l-1.914-4.59c6.2216086.2202879 12.4238858.8214132 18.572 1.8.0574962.0095142.1157284.0138649.174.013.7 0 3-.793 3-11s-2.3-11-3-11zm-23.8 3.97c.4152824 1.5269614.6571423 3.0958635.721 4.677-2.2674172-1.0543305-4.9267377-.8071562-6.961.647-.0511494-1.7957543-.2812886-3.5819291-.687-5.332 1.2113333.0253333 2.4536667.038 3.727.038 1.093 0 2.154-.012 3.2-.03zm-2.2 16.03c-2.7614237 0-5-2.2385763-5-5s2.2385763-5 5-5 5 2.2385763 5 5c-.0033061 2.7600532-2.2399468 4.9966939-5 5zm-28-17.5c.76621595 2.7654906 1.10347504 5.6321928 1 8.5.10347504 2.8678072-.23378405 5.7345094-1 8.5-.76621595-2.7654906-1.10347504-5.6321928-1-8.5-.10347504-2.8678072.23378405-5.7345094 1-8.5zm2.02 17.17c.547-1.586.98-4.24.98-8.67s-.433-7.084-.981-8.672c6.3545916.8776191 12.7525318 1.4060792 19.165 1.583.5997869 2.3136583.8744249 4.6995763.816 7.089 0 .145 0 .283-.006.422-1.2000273 1.9915849-1.3209621 4.4523451-.322 6.552l-.044.106c-6.5607744.16081-13.1072151.6923244-19.608 1.592zm22.387 7.33-.73-1.68c-.219556-.5044532-.80536-.7368087-1.311-.52l-1.683.744 2.345-5.622c.9627521.9755678 2.1909675 1.6467048 3.532 1.93zm9.227-2.2c-.50564-.2168087-1.091444.0155468-1.311.52l-.74 1.663-2.144-5.133c1.342076-.2834163 2.5713104-.9548878 3.535-1.931l2.34 5.6zm20.166-4.85c-6.4246827-.9887912-12.9030696-1.5898786-19.4-1.8l-.071-.172c1.2576047-2.6500536.718457-5.8041476-1.348-7.886-.0077336-2.0738531-.24722-4.1403459-.714-6.161 7.2107886-.1614607 14.4035315-.7901117 21.533-1.882.464.788 1.2 3.905 1.2 8.951s-.741 8.162-1.2 8.95z" id="Shape"/></g><g transform="matrix(0.42479318380355835 0 0 0.42479318380355835 280.0220880061388 81.40661811828613)" id="L1_33"><path d="m47.8 28.6.2-.2666v-9.5022l-16 6.4-16-6.4v9.5018l.2.2666c.165.2207 4.1836 5.4 15.8 5.4s15.6348-5.1796 15.8-5.3996z"/><path d="m62.5 61h-54a5.5 5.5 0 0 1 0-11h54a1.5 1.5 0 0 0 0-3h-54a8.5 8.5 0 0 0 0 17h54a1.5 1.5 0 0 0 0-3z"/><path d="m5 55.5a3.5 3.5 0 0 0 3.5 3.5h54v-7h-54a3.5 3.5 0 0 0 -3.5 3.5z"/><circle cx="53" cy="24" r="2"/><path d="m48.655 16.415-17.011-6.48.712-1.87 19.04 7.254 8.296-3.319-27.692-11.077-27.692 11.077 27.692 11.077z"/><path d="m52 17.69v1.9313a4.1995 4.1995 0 0 1 2 0v-3.31l-2.6039-.9919-2.7413 1.0965z"/><path d="m9 38a2 2 0 0 0 2 2h36.6392l.6666-4h-37.3058a2 2 0 0 0 -2 2z"/><path d="m56 38-1.623-9.7382a4.0992 4.0992 0 0 1 -2.754 0l-1.623 9.7382z"/><path d="m11 45h43.5a1.5 1.5 0 0 0 0-3h-43.5a4 4 0 0 1 0-8h9.68a17.1369 17.1369 0 0 1 -4.9431-3h-4.7369a7 7 0 0 0 0 14z"/><path d="m49.1392 31h-.8753a17.1335 17.1335 0 0 1 -4.9434 3h5.3187z"/></g><g transform="matrix(0.1171875 0 0 0.1171875 76.99999984264377 5)" id="L1_34"><path d="m285.116 418.06c17.418-10.09 29.169-28.922 29.169-50.459 0-32.139-26.146-58.286-58.285-58.286s-58.286 26.147-58.286 58.286c0 21.537 11.751 40.369 29.169 50.459-20.05 10.522-33.767 31.538-33.767 55.71v30.73c0 4.142 3.358 7.5 7.5 7.5h110.766c4.143 0 7.5-3.358 7.5-7.5v-30.73c.001-24.172-13.715-45.188-33.766-55.71zm-72.402-50.459c0-23.868 19.418-43.286 43.286-43.286 23.867 0 43.285 19.418 43.285 43.286s-19.418 43.285-43.285 43.285c-23.868 0-43.286-19.418-43.286-43.285zm91.169 129.399h-95.766v-23.23c0-26.403 21.48-47.883 47.883-47.883 26.402 0 47.883 21.48 47.883 47.883z"/><path d="m458.865 418.06c17.418-10.09 29.17-28.922 29.17-50.459 0-32.139-26.147-58.286-58.286-58.286s-58.285 26.147-58.285 58.286c0 21.537 11.751 40.369 29.169 50.459-20.05 10.522-33.766 31.538-33.766 55.71v30.73c0 4.142 3.357 7.5 7.5 7.5h25.767c4.143 0 7.5-3.358 7.5-7.5s-3.357-7.5-7.5-7.5h-18.267v-23.23c0-26.403 21.48-47.883 47.883-47.883s47.884 21.48 47.884 47.883v23.23h-42.5c-4.143 0-7.5 3.358-7.5 7.5s3.357 7.5 7.5 7.5h50c4.143 0 7.5-3.358 7.5-7.5v-30.73c-.002-24.172-13.719-45.188-33.769-55.71zm-72.402-50.459c0-23.868 19.418-43.286 43.285-43.286 23.868 0 43.286 19.418 43.286 43.286s-19.418 43.286-43.286 43.286c-23.867-.001-43.285-19.419-43.285-43.286z"/><circle cx="193" cy="67" r="8"/><ellipse cx="162px" cy="67px" rx="8px" ry="8px" transform="matrix(0.707 -0.707 0.707 0.707 -0.154 134.367)"/><circle cx="224" cy="67" r="8"/><path d="m383.493 304.7-5.423-18.277c1.957-1.569 3.802-3.224 5.537-4.951h36.14c9.649 0 17.5-7.851 17.5-17.5v-246.472c0-9.649-7.851-17.5-17.5-17.5h-327.496c-9.649 0-17.5 7.851-17.5 17.5v21.789c0 4.142 3.358 7.5 7.5 7.5s7.5-3.358 7.5-7.5v-21.789c0-1.378 1.122-2.5 2.5-2.5h55.081c-15.752 11.867-25.797 29.712-25.797 49.64 0 18.688 8.662 36.008 23.952 48.268l-5.423 18.277c-1.698 5.725 3.649 11.004 9.324 9.324l38.442-11.406c1.776.118 3.552.178 5.296.178 39.476 0 71.592-28.998 71.592-64.641 0-19.928-10.045-37.773-25.797-49.64h180.825c1.379 0 2.5 1.122 2.5 2.5v246.471c0 1.378-1.121 2.5-2.5 2.5h-24.912c4.914-9.118 7.187-19.023 7.187-28.316 0-35.643-32.116-64.64-71.592-64.64-52.452 0-87.631 49.732-64.35 92.957h-125.6c-.903-20.285-12.426-38.728-30.292-48.525 15.958-9.769 25.732-27.09 25.732-45.809 0-26.958-20.046-49.474-46.167-53.145v-44.704c0-4.142-3.358-7.5-7.5-7.5s-7.5 3.358-7.5 7.5v44.716c-26.053 3.661-46.167 26.086-46.167 53.132 0 19.369 10.316 36.372 25.74 45.81-18.074 9.909-30.357 29.117-30.357 51.143v98.491.019s0 .013 0 .019c0 20.792 11.16 40.008 29.169 50.44-20.05 10.522-33.767 31.538-33.767 55.71v30.73c0 4.142 3.358 7.5 7.5 7.5h110.767c4.142 0 7.5-3.358 7.5-7.5v-30.73c0-24.171-13.716-45.187-33.767-55.71 17.706-10.257 29.169-29.295 29.169-50.459v-86.129h136.804c13.11 13.087 32.053 21.324 53.09 21.324 1.744 0 3.521-.06 5.296-.178l38.442 11.406c5.706 1.689 11.012-3.626 9.322-9.323zm-133.773-240.06c0 27.372-25.387 49.641-56.592 49.641-5.404 0-6.046-.604-8.242.05l-26.506 7.864 2.982-10.05c.926-3.123-.269-6.487-2.958-8.325-13.896-9.499-21.867-23.779-21.867-39.18 0-27.372 25.387-49.64 56.592-49.64 31.204 0 56.591 22.269 56.591 49.64zm-206.136 107.498c0-21.321 17.346-38.667 38.667-38.667s38.667 17.346 38.667 38.667-17.346 38.667-38.667 38.667-38.667-17.346-38.667-38.667zm86.551 301.632v23.23h-95.767v-23.23c0-26.403 21.48-47.883 47.883-47.883s47.884 21.48 47.884 47.883zm-47.884-62.884c-23.758 0-43.084-19.243-43.277-42.931-.001-.116-.009-.24-.009-.355 0-23.869 19.419-43.286 43.285-43.286 23.868 0 43.286 19.418 43.286 43.286.001 23.627-19.201 43.286-43.285 43.286zm43.286-136.915v54.636c-23.298-25.868-63.55-25.53-86.571 0v-59.516c0-23.868 19.417-43.286 43.285-43.286s43.286 19.418 43.286 43.286zm236.66 11.689 2.982 10.05c-35.01-10.387-23.954-7.915-34.749-7.915-19.27 0-36.291-8.501-46.503-21.399-.171-.215-.345-.428-.512-.644-4.509-5.891-7.62-12.671-8.909-19.972-.012-.068-.023-.136-.034-.205-5.161-30.069 21.461-57.06 55.957-57.06 33.187 0 59.899 25.243 56.255 55.023-.02.163-.036.326-.058.489-1.699 12.694-9.096 24.849-21.472 33.308-2.688 1.838-3.883 5.202-2.957 8.325z"/><path d="m330.43 232.484c-4.639 0-8.4 3.761-8.4 8.4s3.761 8.4 8.4 8.4 8.4-3.761 8.4-8.4-3.761-8.4-8.4-8.4z"/><circle cx="361" cy="240" r="8"/><ellipse cx="299px" cy="240px" rx="8px" ry="8px" transform="matrix(0.987 -0.16 0.16 0.987 -34.719 51.073)"/></g><path d="m8.7312492 280.59686c-.3420454 0-.6333596.22219-.7436247.52813h-6.6647087c-.4351629 0-.79375005.35859-.79375005.79375v2.64583c-.00508.35784.53425995.35784.52916675 0v-2.64583c0-.15115.1134242-.26458.2645833-.26458h6.6156179v.52916h-6.0864512c-.1461188.00002-.2645675.11847-.2645834.26459v7.40833c.0000133.14612.1184646.26457.2645834.26458h12.1708335c.146119-.00001.26457-.11846.264583-.26458v-3.43907h.529167v3.96824c0 .15115-.113424.26458-.264583.26458h-13.2291672c-.1511591 0-.2645833-.11343-.2645833-.26458v-3.43959c.00508-.35783-.53425998-.35783-.52916675 0v3.43959c0 .43516.35858715.79375.79375005.79375h13.2291672c.435162 0 .79375-.35859.79375-.79375v-3.96824h.264067c.43516 0 .7953-.36013.7953-.7953v-4.2323c0-.43516-.36014-.79271-.7953-.79271zm0 .5271h6.8786508c.151159 0 .266134.11446.266134.26561v4.2323c0 .15116-.114978.26614-.266134.26614h-4.497917c-.06273-.00027-.123536.0217-.171566.062l-1.4164523 1.21491v-1.01337c-.0005291-.14531-.1182343-.26296-.2635488-.26354h-.5291667c-.1511458 0-.2635488-.11499-.2635488-.26614v-4.2323c0-.15115.1124056-.26561.2635488-.26561zm2.1171828 1.05885v2.64635c.000045.20741.227862.33414.404111.22479l2.117183-1.3224c.166132-.10359.166132-.34547 0-.44907l-2.117183-1.32446c-.158684-.0993-.404111-.0105-.404111.22479zm.529167.47852 1.351856.84543-1.351856.84388zm-9.2609332.0512h5.8218679v2.90938c0 .43516.3575606.7953.7927155.7953h.2635488v1.32189c-.00132.22728.2657925.35021.4377003.20154l1.7771537-1.52343h2.548681v3.17449h-5.2916671c0-.8749-.7131235-1.58595-1.588016-1.58595h-.2635514v-.67386c.3240008-.29102.5296852-.71151.5296852-1.17978v-.26354c.1461188-.00053.2641071-.1195.2635489-.26562v-.79324c0-.8749-.7131236-1.58801-1.588016-1.58801h-.5291667c-.874903 0-1.5859389.71312-1.5859495 1.58801v.79324c-.0005292.14612.11743.26503.2635488.26562v.26354c-.000008.4682.2047399.88877.5286507 1.17978v.67386h-.2651019c-.8748951 0-1.5859496.71105-1.5859496 1.58595h-.5296826zm3.1744841 1.05885h.5291667c.590886 0 1.0583307.46743 1.0583333 1.05833v.42013l-.3420983-.34213c-.08918-.0892-.2283724-.10301-.3333141-.0331 0 0-.7656116.48473-1.4417728.48473h-.5291667v-.52969c.0000079-.5909.4679527-1.05833 1.0588519-1.05833zm-4.5015336 1.58337c-.145923.002-.26244815.12227-.26045055.2682v.26458c-.00508.35783.53425995.35783.52916675 0v-.26458c.00212-.14917-.11955735-.27053-.2687162-.2682zm5.5180072.0708.307475.3085v.41806c0 .59089-.4674367 1.05834-1.0583334 1.05834-.5908833 0-1.0593731-.46746-1.0593652-1.05834v-.26354h.2640648c.6784102 0 1.3702877-.34985 1.5461588-.46302zm-1.280025 2.22156c.1657641.0589.343572.093.5291666.093.1857666 0 .3632756-.034.5291667-.093v.57155s-.089649.31419-.5291667.31419c-.4395179 0-.5291666-.31058-.5291666-.31058zm-.7953005.8857h.3586348s.2283301.52917.9658323.52917c.7375023 0 .9653165-.52917.9653165-.52917h.3565683c.5908861 0 1.0588493.46795 1.0588493 1.05885h-4.7614655c0-.5909.4653783-1.05885 1.0562643-1.05885zm-1.3213662 3.175c-.7283186 0-1.3244672.59408-1.3244672 1.3224v.26561c0 .30799.1113235.58822.289388.81339-.7609178.11655-1.34564174.7743-1.34565233 1.56735v.52968c-.00052916.14612.11743003.26503.26354882.26562h4.23229891c.1469284.00053.2661788-.11869.2656179-.26562v-.52968c0-.79279-.5858378-1.45048-1.3466869-1.56735.1776598-.22517.2883535-.5054.2883535-.81339v-.26561c0-.72832-.5940822-1.3224-1.3224007-1.3224zm5.5567686 0c-.7283212 0-1.3244671.59408-1.3244671 1.3224v.26561c0 .30794.1108525.58823.2888694.81339-.7610925.11666-1.3471922.77438-1.3472028 1.56735v.52968c-.0005291.14693.1186868.26618.2656152.26562h4.2323019c.146928.00053.266176-.11869.265615-.26562v-.52968c0-.79271-.585962-1.45037-1.346687-1.56735.1776624-.22517.2883535-.5054.2883535-.81339v-.26561c0-.72832-.5940795-1.3224-1.3223981-1.3224zm5.5546996 0c-.728321 0-1.322401.59408-1.322401 1.3224v.26561c0 .30799.110694.58822.288354.81339-.760847.11687-1.347192.77456-1.347203 1.56735v.52968c-.000529.14713.119004.26647.266134.26562h4.232299c.146928.00053.266178-.11869.265617-.26562v-.52968c0-.79306-.586504-1.4508-1.347721-1.56735.178065-.22517.28887-.5054.28887-.81339v-.26561c0-.72832-.59563-1.3224-1.323949-1.3224zm-11.1114682.52968c.4443148 0 .7927181.3484.7927181.79272v.26561c0 .44432-.3484033.79324-.7927181.79324s-.7947819-.34892-.7947819-.79324v-.26561c0-.44432.3504671-.79272.7947819-.79272zm5.5567686 0c.4443122 0 .7927155.3484.7927155.79272v.26561c0 .44432-.3484033.79324-.7927155.79324-.4443148 0-.7953004-.34892-.7953004-.79324v-.26561c0-.44432.3509856-.79272.7953004-.79272zm5.5546996 0c.444312 0 .794782.3484.794782.79272v.26561c0 .44432-.35047.79324-.794782.79324-.444315 0-.793234-.34892-.793234-.79324v-.26561c0-.44432.348919-.79272.793234-.79272zm-11.9062501 2.38074h1.5875c.590886 0 1.0588493.46743 1.0588493 1.05833v.26613h-3.7052013v-.26613c.000008-.5909.4679633-1.05833 1.058852-1.05833zm5.5562501 0h1.5880159c.590886 0 1.0588491.46743 1.0588491 1.05833v.26613h-3.7051984v-.26613c.0000079-.5909.4674473-1.05833 1.0583334-1.05833zm5.556766 0h1.588016c.590886 0 1.058852.46743 1.058852 1.05833v.26613h-3.705201v-.26613c.000008-.5909.467447-1.05833 1.058333-1.05833z" transform="matrix(3.543307065963745 0 0 3.543307065963745 179 340)" id="L1_35"/><path d="m503.113 281.937c-14.167-35.206-38.573-56.229-56.788-48.908l-99.535 40.047v-68.293c13.592-8.925 27.485-19.041 41.377-30.498 6.773-5.587 10.658-13.824 10.658-22.598v-31.61l-.002.001v-.001c0-8.767-3.882-17.002-10.654-22.596-79.853-65.858-159.808-87.497-182.421-92.562-4.144-.923-8.526-.922-12.679.002-7.336 1.643-22.692 5.503-43.117 12.908-3.895 1.411-5.907 5.712-4.495 9.607 1.411 3.894 5.713 5.907 9.606 4.495 19.641-7.12 34.296-10.807 41.275-12.37 2.038-.455 4.107-.455 6.14-.002 21.783 4.879 98.86 25.754 176.142 89.493 3.307 2.731 5.203 6.75 5.203 11.027s-1.896 8.296-5.199 11.024c-77.285 63.743-154.363 84.617-176.135 89.494-2.043.454-4.112.454-6.142.002-12.04-2.697-40.977-10.286-77.5-27.293l61.832-52.662c5.35 2.462 11.765 3.884 18.733 3.884 19.182 0 34.209-10.74 34.209-24.45s-15.026-24.449-34.209-24.449-34.21 10.74-34.21 24.449c0 3.988 1.279 7.722 3.554 11.016l-64.624 55.04c-26.012-13.262-54.956-31.133-83.928-55.028-3.307-2.731-5.203-6.75-5.203-11.027s1.896-8.296 5.199-11.024c32.602-26.89 68.879-49.193 107.821-66.288 3.793-1.665 5.518-6.089 3.853-9.882s-6.091-5.518-9.882-3.852c-40.207 17.65-77.665 40.68-111.339 68.453-6.768 5.591-10.65 13.826-10.65 22.593v.003l-.003-.004v31.61c0 8.774 3.885 17.011 10.659 22.599 13.892 11.457 27.785 21.573 41.378 30.498v71.465c0 7.005 3.103 13.579 8.512 18.034 6.727 5.549 13.775 10.896 20.994 15.974-2.698 7.754-4.072 15.358-4.072 19.798 0 15.52 12.627 28.147 28.147 28.147 12.096 0 22.432-7.669 26.406-18.4 7.799 3.732 15.657 7.152 23.534 10.215l-20.459 8.232c-.006.002-.012.004-.018.006-18.208 7.326-21.256 39.401-7.09 74.61 6.282 15.613 15.053 29.264 24.696 38.441 8.272 7.871 16.687 11.947 24.386 11.946 2.666 0 5.247-.489 7.706-1.478.022-.009.043-.021.065-.03l80.21-32.274 21.565 53.597c1.06 2.633 3.514 4.442 6.342 4.675.207.017.413.025.618.025 2.601 0 5.036-1.353 6.404-3.6l25.457-41.809 47.32 12.527c2.739.725 5.661-.158 7.54-2.285s2.396-5.132 1.337-7.765l-21.564-53.593 77.114-31.033c3.843-1.546 5.704-5.915 4.158-9.758s-5.916-5.704-9.758-4.158l-45.705 18.39c2.496-13.953-.037-32.673-7.965-52.379-6.282-15.612-15.053-29.264-24.696-38.44-1.931-1.837-3.87-3.454-5.805-4.874l104.51-42.049c7.343-2.958 25.522 11.387 37.273 40.591 5.499 13.665 8.249 27.359 7.743 38.556-.395 8.742-2.891 15.077-6.514 16.535l-31.3 12.59c-3.843 1.545-5.705 5.914-4.159 9.757s5.915 5.704 9.757 4.159l31.3-12.59c9.56-3.845 15.207-14.419 15.9-29.775.599-13.291-2.53-29.213-8.813-44.828zm-303.7-171.309c11.725 0 19.209 5.597 19.209 9.45s-7.483 9.45-19.209 9.45-19.21-5.597-19.21-9.45 7.484-9.45 19.21-9.45zm-.003 125.301c2.134 0 4.269-.231 6.348-.693 22.193-4.972 99.675-25.927 178.068-89.027v5.479c0 4.28-1.896 8.3-5.202 11.027-77.321 63.768-154.366 84.623-176.12 89.492-2.052.454-4.131.454-6.163.004-12.658-2.833-44.004-11.072-83.223-30.004v-15.048c37.65 17.467 67.506 25.289 79.961 28.079 2.07.461 4.199.691 6.331.691zm-184.41-84.241v-5.479c28.719 23.118 57.315 40.578 83.117 53.668v14.748c-24.418-12.907-51.148-29.835-77.913-51.91-3.308-2.728-5.204-6.747-5.204-11.027zm55.089 131.022c-1.94-1.598-3.053-3.952-3.053-6.459v-62.011c10.677 6.457 21.088 12.184 31.081 17.254v23.047c-8.982 3.115-15.451 11.657-15.451 21.686 0 6.757 2.937 12.84 7.599 17.044-.782 1.016-1.529 2.089-2.241 3.211-6.155-4.403-12.166-9.013-17.935-13.772zm35.528 1.469c-4.385 0-7.951-3.567-7.951-7.952s3.566-7.952 7.951-7.952 7.952 3.567 7.952 7.952-3.567 7.952-7.952 7.952zm0 59.025c-7.25 0-13.147-5.897-13.147-13.147 0-11.901 9.245-30.361 13.124-30.879h.003c3.923.52 13.167 18.979 13.167 30.879 0 7.25-5.897 13.147-13.147 13.147zm27.528-19.549c-1.469-8.971-5.571-21.804-12.176-30.383 4.663-4.204 7.6-10.287 7.6-17.045 0-10.03-6.469-18.571-15.452-21.687v-15.764c37.655 17.471 67.508 25.288 79.963 28.076 2.1.465 4.213.697 6.329.697 2.119 0 4.241-.233 6.352-.701 17.205-3.851 67.661-17.312 126.029-52.61v62.01c0 1.086-.226 2.132-.62 3.113l-154.659 62.226c-14.489-4.747-29.046-10.767-43.366-17.932zm131.472 12.569c8.122 7.728 15.623 19.51 21.12 33.173 11.725 29.141 8.588 52.034 1.274 55.072l-87.179 35.078c2.496-13.953-.036-32.674-7.965-52.381-6.282-15.613-15.053-29.264-24.696-38.441-1.931-1.838-3.87-3.454-5.806-4.874l87.138-35.059c3.623-1.421 9.794 1.42 16.114 7.432zm-101.592 124.218c-8.122-7.728-15.623-19.51-21.12-33.173-11.75-29.204-8.576-52.135-1.229-55.095h.002l.008-.003c.626-.251 1.328-.374 2.094-.374 3.67 0 8.809 2.807 14.051 7.795 8.122 7.728 15.623 19.51 21.12 33.173 11.73 29.155 8.586 52.056 1.264 55.077l-.037.015c-.006.002-.01.006-.016.008-3.625 1.447-9.804-1.397-16.137-7.423zm199.11-3.882-38.272-10.132c-3.212-.85-6.597.514-8.325 3.35l-20.589 33.814-15.979-39.715 67.186-27.032zm-19.256-151.825c8.122 7.728 15.622 19.509 21.12 33.173 11.721 29.132 8.59 52.019 1.281 55.068l-57.659 23.2c2.495-13.953-.042-32.674-7.969-52.377-6.282-15.613-15.053-29.264-24.696-38.441-1.927-1.833-3.862-3.461-5.793-4.879l57.594-23.173c3.625-1.432 9.798 1.412 16.122 7.429z" transform="matrix(0.11718818545341492 0 0 0.11718818545341492 143.9999992275193 310.99999948501295)" id="L1_36"/><path d="m213.279 34s-1.918-1.267-2.479-1.44c-.813-.25-3.36-.56-3.36-.56-30.644-.361-59.822 13.096-79.44 36.64-19.618-23.544-48.796-37.001-79.44-36.64 0 0-2.54-.18-3.36 0-.573.125-2.48 1.44-2.48 1.44l-24 21.12c-1.881 1.642-2.887 4.069-2.72 6.56v126.72c0 4.418 3.582 8 8 8 65.28 0 98.61 26.206 98.96 26.4 1.167.647 3.353 1.833 6.354 1.832 1.946-.001 4.142-1.396 5.378-2.224 8.677-5.806 41.092-24.729 96.588-24.729 4.419 0 8-3.582 8-8v-128c-.002-2.298-.993-4.483-2.719-6zm-13.279 14v111.04c-24.66 2.021-47.588 13.484-64 32v-106.48c14.726-21.218 38.244-34.652 64-36.56zm-144 0c25.731 1.73 49.28 15.064 64 36.24v106.8c-16.413-18.516-39.34-29.979-64-32zm-24 16.72 8-7.04v109.041c0 4.418 3.582 8 8 8 17.743-.135 35.005 5.761 48.96 16.719-20.937-7.129-42.848-10.987-64.96-11.44zm192 115.28c-22.112.453-44.023 4.311-64.96 11.439 13.955-10.958 31.218-16.854 48.96-16.719 4.418 0 8-3.582 8-8v-109.04l8 7.04z" transform="matrix(0.17277930676937103 0 0 0.17277930676937103 327.8593638000973 113.79340340217004)" id="L1_37"/><g transform="matrix(0.1171875 0 0 0.1171875 195 197)" id="L1_38"><circle cx="256" cy="85" r="85"/><path d="m318.459 181.515c-17.997 11.687-39.448 18.485-62.459 18.485s-44.462-6.798-62.459-18.485c-19.895 7.603-38.341 18.82-54.38 33.216l116.839 43.815 116.839-43.815c-16.039-14.396-34.485-25.614-54.38-33.216z"/><path d="m436 310h-10c-8.284 0-15 6.716-15 15v40c0 8.284 6.716 15 15 15h10c19.33 0 35-15.67 35-35 0-19.33-15.67-35-35-35z"/><path d="m87.456 234.276c-4.044 2.803-6.456 7.409-6.456 12.329v33.395h5c24.813 0 45 20.187 45 45v40c0 24.813-20.187 45-45 45h-5v31.605c0 6.253 3.879 11.85 9.733 14.045l150.267 56.35v-227.04l-139.733-52.4c-4.607-1.729-9.768-1.088-13.811 1.716z"/><path d="m381 365v-40c0-24.813 20.187-45 45-45h5v-33.395c0-4.92-2.412-9.526-6.456-12.329-4.044-2.804-9.206-3.445-13.811-1.716l-139.733 52.4v227.04l150.267-56.35c5.854-2.195 9.733-7.792 9.733-14.045v-31.605h-5c-24.813 0-45-20.187-45-45z"/><path d="m101 365v-40c0-8.284-6.716-15-15-15h-10c-19.33 0-35 15.67-35 35 0 19.33 15.67 35 35 35h10c8.284 0 15-6.716 15-15z"/></g></defs><g fi:class="KUsePattern" opacity="0.2"><pattern id="pattern_L1_22" width="350" height="350" patternUnits="userSpaceOnUse"><use xlink:href="#L1_22" x="-350" y="-350"/><use xlink:href="#L1_22" x="0" y="-350"/><use xlink:href="#L1_22" x="350" y="-350"/><use xlink:href="#L1_22" x="-350" y="0"/><use xlink:href="#L1_22" x="0" y="0"/><use xlink:href="#L1_22" x="350" y="0"/><use xlink:href="#L1_22" x="-350" y="350"/><use xlink:href="#L1_22" x="0" y="350"/><use xlink:href="#L1_22" x="350" y="350"/></pattern><rect x="0" y="0" width="100%" height="100%" fill="url(#pattern_L1_22)"/></g><g fi:class="KUsePattern" opacity="0.2"><pattern id="pattern_L1_23" width="350" height="350" patternUnits="userSpaceOnUse"><use xlink:href="#L1_23" x="-350" y="-350"/><use xlink:href="#L1_23" x="0" y="-350"/><use xlink:href="#L1_23" x="350" y="-350"/><use xlink:href="#L1_23" x="-350" y="0"/><use xlink:href="#L1_23" x="0" y="0"/><use xlink:href="#L1_23" x="350" y="0"/><use xlink:href="#L1_23" x="-350" y="350"/><use xlink:href="#L1_23" x="0" y="350"/><use xlink:href="#L1_23" x="350" y="350"/></pattern><rect x="0" y="0" width="100%" height="100%" fill="url(#pattern_L1_23)"/></g><g fi:class="KUsePattern" opacity="0.2"><pattern id="pattern_L1_24" width="350" height="350" patternUnits="userSpaceOnUse"><use xlink:href="#L1_24" x="-350" y="-350"/><use xlink:href="#L1_24" x="0" y="-350"/><use xlink:href="#L1_24" x="350" y="-350"/><use xlink:href="#L1_24" x="-350" y="0"/><use xlink:href="#L1_24" x="0" y="0"/><use xlink:href="#L1_24" x="350" y="0"/><use xlink:href="#L1_24" x="-350" y="350"/><use xlink:href="#L1_24" x="0" y="350"/><use xlink:href="#L1_24" x="350" y="350"/></pattern><rect x="0" y="0" width="100%" height="100%" fill="url(#pattern_L1_24)"/></g><g fi:class="KUsePattern" opacity="0.2"><pattern id="pattern_L1_25" width="350" height="350" patternUnits="userSpaceOnUse"><use xlink:href="#L1_25" x="-350" y="-350"/><use xlink:href="#L1_25" x="0" y="-350"/><use xlink:href="#L1_25" x="350" y="-350"/><use xlink:href="#L1_25" x="-350" y="0"/><use xlink:href="#L1_25" x="0" y="0"/><use xlink:href="#L1_25" x="350" y="0"/><use xlink:href="#L1_25" x="-350" y="350"/><use xlink:href="#L1_25" x="0" y="350"/><use xlink:href="#L1_25" x="350" y="350"/></pattern><rect x="0" y="0" width="100%" height="100%" fill="url(#pattern_L1_25)"/></g><g fi:class="KUsePattern" opacity="0.2"><pattern id="pattern_L1_26" width="350" height="350" patternUnits="userSpaceOnUse"><use xlink:href="#L1_26" x="-350" y="-350"/><use xlink:href="#L1_26" x="0" y="-350"/><use xlink:href="#L1_26" x="350" y="-350"/><use xlink:href="#L1_26" x="-350" y="0"/><use xlink:href="#L1_26" x="0" y="0"/><use xlink:href="#L1_26" x="350" y="0"/><use xlink:href="#L1_26" x="-350" y="350"/><use xlink:href="#L1_26" x="0" y="350"/><use xlink:href="#L1_26" x="350" y="350"/></pattern><rect x="0" y="0" width="100%" height="100%" fill="url(#pattern_L1_26)"/></g><g fi:class="KUsePattern" opacity="0.2"><pattern id="pattern_L1_27" width="350" height="350" patternUnits="userSpaceOnUse"><use xlink:href="#L1_27" x="-350" y="-350"/><use xlink:href="#L1_27" x="0" y="-350"/><use xlink:href="#L1_27" x="350" y="-350"/><use xlink:href="#L1_27" x="-350" y="0"/><use xlink:href="#L1_27" x="0" y="0"/><use xlink:href="#L1_27" x="350" y="0"/><use xlink:href="#L1_27" x="-350" y="350"/><use xlink:href="#L1_27" x="0" y="350"/><use xlink:href="#L1_27" x="350" y="350"/></pattern><rect x="0" y="0" width="100%" height="100%" fill="url(#pattern_L1_27)"/></g><g fi:class="KUsePattern" opacity="0.2"><pattern id="pattern_L1_28" width="350" height="350" patternUnits="userSpaceOnUse"><use xlink:href="#L1_28" x="-350" y="-350"/><use xlink:href="#L1_28" x="0" y="-350"/><use xlink:href="#L1_28" x="350" y="-350"/><use xlink:href="#L1_28" x="-350" y="0"/><use xlink:href="#L1_28" x="0" y="0"/><use xlink:href="#L1_28" x="350" y="0"/><use xlink:href="#L1_28" x="-350" y="350"/><use xlink:href="#L1_28" x="0" y="350"/><use xlink:href="#L1_28" x="350" y="350"/></pattern><rect x="0" y="0" width="100%" height="100%" fill="url(#pattern_L1_28)"/></g><g fi:class="KUsePattern" opacity="0.2"><pattern id="pattern_L1_29" width="350" height="350" patternUnits="userSpaceOnUse"><use xlink:href="#L1_29" x="-350" y="-350"/><use xlink:href="#L1_29" x="0" y="-350"/><use xlink:href="#L1_29" x="350" y="-350"/><use xlink:href="#L1_29" x="-350" y="0"/><use xlink:href="#L1_29" x="0" y="0"/><use xlink:href="#L1_29" x="350" y="0"/><use xlink:href="#L1_29" x="-350" y="350"/><use xlink:href="#L1_29" x="0" y="350"/><use xlink:href="#L1_29" x="350" y="350"/></pattern><rect x="0" y="0" width="100%" height="100%" fill="url(#pattern_L1_29)"/></g><g fi:class="KUsePattern" opacity="0.2"><pattern id="pattern_L1_30" width="350" height="350" patternUnits="userSpaceOnUse"><use xlink:href="#L1_30" x="-350" y="-350"/><use xlink:href="#L1_30" x="0" y="-350"/><use xlink:href="#L1_30" x="350" y="-350"/><use xlink:href="#L1_30" x="-350" y="0"/><use xlink:href="#L1_30" x="0" y="0"/><use xlink:href="#L1_30" x="350" y="0"/><use xlink:href="#L1_30" x="-350" y="350"/><use xlink:href="#L1_30" x="0" y="350"/><use xlink:href="#L1_30" x="350" y="350"/></pattern><rect x="0" y="0" width="100%" height="100%" fill="url(#pattern_L1_30)"/></g><g fi:class="KUsePattern" opacity="0.2"><pattern id="pattern_L1_32" width="350" height="350" patternUnits="userSpaceOnUse"><use xlink:href="#L1_32" x="-350" y="-350"/><use xlink:href="#L1_32" x="0" y="-350"/><use xlink:href="#L1_32" x="350" y="-350"/><use xlink:href="#L1_32" x="-350" y="0"/><use xlink:href="#L1_32" x="0" y="0"/><use xlink:href="#L1_32" x="350" y="0"/><use xlink:href="#L1_32" x="-350" y="350"/><use xlink:href="#L1_32" x="0" y="350"/><use xlink:href="#L1_32" x="350" y="350"/></pattern><rect x="0" y="0" width="100%" height="100%" fill="url(#pattern_L1_32)"/></g><g fi:class="KUsePattern" opacity="0.2"><pattern id="pattern_L1_33" width="350" height="350" patternUnits="userSpaceOnUse"><use xlink:href="#L1_33" x="-350" y="-350"/><use xlink:href="#L1_33" x="0" y="-350"/><use xlink:href="#L1_33" x="350" y="-350"/><use xlink:href="#L1_33" x="-350" y="0"/><use xlink:href="#L1_33" x="0" y="0"/><use xlink:href="#L1_33" x="350" y="0"/><use xlink:href="#L1_33" x="-350" y="350"/><use xlink:href="#L1_33" x="0" y="350"/><use xlink:href="#L1_33" x="350" y="350"/></pattern><rect x="0" y="0" width="100%" height="100%" fill="url(#pattern_L1_33)"/></g><g fi:class="KUsePattern" opacity="0.2"><pattern id="pattern_L1_34" width="350" height="350" patternUnits="userSpaceOnUse"><use xlink:href="#L1_34" x="-350" y="-350"/><use xlink:href="#L1_34" x="0" y="-350"/><use xlink:href="#L1_34" x="350" y="-350"/><use xlink:href="#L1_34" x="-350" y="0"/><use xlink:href="#L1_34" x="0" y="0"/><use xlink:href="#L1_34" x="350" y="0"/><use xlink:href="#L1_34" x="-350" y="350"/><use xlink:href="#L1_34" x="0" y="350"/><use xlink:href="#L1_34" x="350" y="350"/></pattern><rect x="0" y="0" width="100%" height="100%" fill="url(#pattern_L1_34)"/></g><g fi:class="KUsePattern"><pattern id="pattern_L1_35" width="350" height="350" patternUnits="userSpaceOnUse"><use xlink:href="#L1_35" x="-350" y="-350"/><use xlink:href="#L1_35" x="0" y="-350"/><use xlink:href="#L1_35" x="350" y="-350"/><use xlink:href="#L1_35" x="-350" y="0"/><use xlink:href="#L1_35" x="0" y="0"/><use xlink:href="#L1_35" x="350" y="0"/><use xlink:href="#L1_35" x="-350" y="350"/><use xlink:href="#L1_35" x="0" y="350"/><use xlink:href="#L1_35" x="350" y="350"/></pattern><rect x="0" y="0" width="100%" height="100%" fill="url(#pattern_L1_35)"/></g><g fi:class="KUsePattern" opacity="0.2"><pattern id="pattern_L1_36" width="350" height="350" patternUnits="userSpaceOnUse"><use xlink:href="#L1_36" x="-350" y="-350"/><use xlink:href="#L1_36" x="0" y="-350"/><use xlink:href="#L1_36" x="350" y="-350"/><use xlink:href="#L1_36" x="-350" y="0"/><use xlink:href="#L1_36" x="0" y="0"/><use xlink:href="#L1_36" x="350" y="0"/><use xlink:href="#L1_36" x="-350" y="350"/><use xlink:href="#L1_36" x="0" y="350"/><use xlink:href="#L1_36" x="350" y="350"/></pattern><rect x="0" y="0" width="100%" height="100%" fill="url(#pattern_L1_36)"/></g><g fi:class="KUsePattern" opacity="0.2"><pattern id="pattern_L1_37" width="350" height="350" patternUnits="userSpaceOnUse"><use xlink:href="#L1_37" x="-350" y="-350"/><use xlink:href="#L1_37" x="0" y="-350"/><use xlink:href="#L1_37" x="350" y="-350"/><use xlink:href="#L1_37" x="-350" y="0"/><use xlink:href="#L1_37" x="0" y="0"/><use xlink:href="#L1_37" x="350" y="0"/><use xlink:href="#L1_37" x="-350" y="350"/><use xlink:href="#L1_37" x="0" y="350"/><use xlink:href="#L1_37" x="350" y="350"/></pattern><rect x="0" y="0" width="100%" height="100%" fill="url(#pattern_L1_37)"/></g><g fi:class="KUsePattern" opacity="0.2"><pattern id="pattern_L1_38" width="350" height="350" patternUnits="userSpaceOnUse"><use xlink:href="#L1_38" x="-350" y="-350"/><use xlink:href="#L1_38" x="0" y="-350"/><use xlink:href="#L1_38" x="350" y="-350"/><use xlink:href="#L1_38" x="-350" y="0"/><use xlink:href="#L1_38" x="0" y="0"/><use xlink:href="#L1_38" x="350" y="0"/><use xlink:href="#L1_38" x="-350" y="350"/><use xlink:href="#L1_38" x="0" y="350"/><use xlink:href="#L1_38" x="350" y="350"/></pattern><rect x="0" y="0" width="100%" height="100%" fill="url(#pattern_L1_38)"/></g></svg>